<?xml version="1.0" encoding="utf-8"?>
<svg width="800px" height="800px" viewBox="0 0 24 24" fill="none" xmlns="http://www.w3.org/2000/svg">
<g id="style=bulk">
<g id="arrow-short-left">
<path id="rectangle" d="M1.25 7.25C1.25 3.93629 3.93629 1.25 7.25 1.25L16.75 1.25C20.0637 1.25 22.75 3.93629 22.75 7.25L22.75 16.75C22.75 20.0637 20.0637 22.75 16.75 22.75L7.25 22.75C3.93629 22.75 1.25 20.0637 1.25 16.75L1.25 7.25Z" fill="white"/>
<path id="vector (Stroke)" fill-rule="evenodd" clip-rule="evenodd" d="M15.2966 5.45397C15.5447 5.71587 15.5335 6.12932 15.2716 6.37744L10.1709 11.2096C9.94415 11.4245 9.83099 11.711 9.83099 12C9.83099 12.289 9.94415 12.5755 10.1709 12.7904L15.2716 17.6226C15.5335 17.8707 15.5447 18.2841 15.2966 18.546C15.0485 18.8079 14.635 18.8191 14.3731 18.571L9.27244 13.7388C8.77399 13.2666 8.52454 12.632 8.52454 12C8.52454 11.368 8.77399 10.7334 9.27244 10.2612L14.3731 5.42902C14.635 5.1809 15.0485 5.19208 15.2966 5.45397Z" fill="blue"/>
</g>
</g>
</svg>